<?xml version="1.0" encoding="utf-8"?>
<svg width="216px" height="216px" viewBox="0 0 216 216" version="1.1" xmlns:xlink="http://www.w3.org/1999/xlink" xmlns="http://www.w3.org/2000/svg">
  <g id="Group-4">
    <path d="M0 0L216 0L216 216L0 216L0 0Z" id="Rectangle" fill="none" fill-rule="evenodd" stroke="none" />
    <path d="M22.7096 154.695L103.334 49.906C113.147 35.4771 129.698 26 148.463 26C178.583 26 203 50.4171 203 80.537C203 99.8542 192.957 116.826 177.807 126.515L177.831 126.542L71.6273 208.536L71.6269 208.536C65.4887 213.219 57.8215 216 49.5047 216C29.3437 216 13.0001 199.656 13.0001 179.495C13.0001 169.922 16.6849 161.21 22.7135 154.7L22.7096 154.695ZM121.194 80.537C121.194 65.4771 133.403 53.2685 148.463 53.2685C163.523 53.2685 175.732 65.4771 175.732 80.537C175.732 95.597 163.523 107.806 148.463 107.806C133.403 107.806 121.194 95.597 121.194 80.537ZM31.4722 179.056C31.4722 169.339 39.3487 161.463 49.0648 161.463C58.7809 161.463 66.6574 169.339 66.6574 179.056C66.6574 188.772 58.7809 196.648 49.0648 196.648C39.3487 196.648 31.4722 188.772 31.4722 179.056Z" id="Oval-Copy-Union-Subtract" fill="#1D1D1D" fill-rule="evenodd" stroke="none" />
  </g>
</svg>